<svg width="204" height="58" viewBox="0 0 204 58" fill="none" xmlns="http://www.w3.org/2000/svg">
<path d="M57.724 40L61.828 20.56H54.7L55.492 16.816H74.572L73.78 20.56H66.688L62.584 40H57.724ZM69.2977 40L72.8977 22.936H77.3977L77.2537 24.7C78.1417 24.22 79.1857 23.788 80.3857 23.404C81.6097 22.996 82.7857 22.72 83.9137 22.576L83.1577 26.248C82.4857 26.344 81.7417 26.488 80.9257 26.68C80.1337 26.872 79.3537 27.088 78.5857 27.328C77.8417 27.568 77.2057 27.82 76.6777 28.084L74.1577 40H69.2977ZM89.0794 40.36C87.6154 40.36 86.3434 40.096 85.2634 39.568C84.2074 39.04 83.4514 38.188 82.9954 37.012C82.5634 35.812 82.5514 34.24 82.9594 32.296C83.3914 30.256 84.1114 28.516 85.1194 27.076C86.1274 25.636 87.3394 24.532 88.7554 23.764C90.1714 22.972 91.6834 22.576 93.2914 22.576C94.2514 22.576 95.0794 22.684 95.7754 22.9C96.4714 23.116 97.1194 23.5 97.7194 24.052L97.9354 22.936H102.795L99.1954 40H95.0194L95.0554 38.416C94.1674 39.064 93.2434 39.556 92.2834 39.892C91.3474 40.204 90.2794 40.36 89.0794 40.36ZM91.1674 36.796C92.6794 36.796 94.0714 36.28 95.3434 35.248L96.9274 27.652C96.1834 26.644 95.1394 26.14 93.7954 26.14C90.7474 26.14 88.7794 28.192 87.8914 32.296C87.5074 34.048 87.5674 35.236 88.0714 35.86C88.5994 36.484 89.6314 36.796 91.1674 36.796ZM111.897 40.36C110.073 40.36 108.513 40.024 107.217 39.352C105.945 38.68 105.045 37.684 104.517 36.364C104.013 35.044 103.965 33.412 104.373 31.468C104.997 28.468 106.281 26.236 108.225 24.772C110.169 23.308 112.701 22.576 115.821 22.576C117.021 22.576 118.029 22.66 118.845 22.828C119.685 22.996 120.477 23.272 121.221 23.656L120.465 27.148C119.937 26.86 119.289 26.632 118.521 26.464C117.777 26.296 116.949 26.212 116.037 26.212C114.213 26.212 112.737 26.596 111.609 27.364C110.481 28.108 109.713 29.476 109.305 31.468C108.921 33.292 109.017 34.624 109.593 35.464C110.193 36.304 111.585 36.724 113.769 36.724C114.609 36.724 115.449 36.64 116.289 36.472C117.129 36.304 117.933 36.052 118.701 35.716L117.945 39.316C116.169 40.012 114.153 40.36 111.897 40.36ZM120.871 40L126.019 15.736H130.879L128.035 29.092L135.703 22.936H141.247L132.895 29.92L138.043 40H132.895L129.295 32.476L126.919 34.384L125.731 40H120.871ZM168.673 40.36C167.209 40.36 165.937 40.096 164.857 39.568C163.801 39.04 163.045 38.188 162.589 37.012C162.157 35.812 162.145 34.24 162.553 32.296C162.985 30.256 163.705 28.516 164.713 27.076C165.721 25.636 166.933 24.532 168.349 23.764C169.765 22.972 171.277 22.576 172.885 22.576C173.845 22.576 174.673 22.684 175.369 22.9C176.065 23.116 176.713 23.5 177.313 24.052L177.529 22.936H182.389L178.789 40H174.613L174.649 38.416C173.761 39.064 172.837 39.556 171.877 39.892C170.941 40.204 169.873 40.36 168.673 40.36ZM170.761 36.796C172.273 36.796 173.665 36.28 174.937 35.248L176.521 27.652C175.777 26.644 174.733 26.14 173.389 26.14C170.341 26.14 168.373 28.192 167.485 32.296C167.101 34.048 167.161 35.236 167.665 35.86C168.193 36.484 169.225 36.796 170.761 36.796ZM182.887 40L188.035 15.736H192.895L190.051 29.092L197.719 22.936H203.263L194.911 29.92L200.059 40H194.911L191.311 32.476L188.935 34.384L187.747 40H182.887Z" fill="#181D34"/>
<path d="M140.138 40L145.034 16.816H155.618C157.394 16.816 158.81 17.188 159.866 17.932C160.946 18.652 161.678 19.624 162.062 20.848C162.446 22.048 162.482 23.368 162.17 24.808C161.666 27.16 160.634 29.068 159.074 30.532C157.538 31.996 155.378 32.728 152.594 32.728H146.51L144.998 40H140.138ZM147.338 28.876H152.198C153.734 28.876 154.898 28.516 155.69 27.796C156.506 27.052 157.034 26.056 157.274 24.808C157.562 23.464 157.502 22.444 157.094 21.748C156.71 21.028 155.726 20.668 154.142 20.668H149.102L147.338 28.876Z" fill="#18D6BF"/>
<path d="M51.76 53L56.344 45.272H58.12L59.428 53H57.808L57.46 51.14H54.616L53.512 53H51.76ZM55.132 49.892H57.496L56.968 46.784L55.132 49.892ZM62.3676 53.12C61.8956 53.12 61.4836 53.02 61.1316 52.82C60.7796 52.612 60.5276 52.292 60.3756 51.86C60.2316 51.428 60.2316 50.872 60.3756 50.192C60.5916 49.176 60.9916 48.424 61.5756 47.936C62.1596 47.44 62.8756 47.192 63.7236 47.192C64.3636 47.192 64.8756 47.336 65.2596 47.624L65.8356 44.912H67.4556L65.7396 53H64.3476L64.3596 52.472C64.0636 52.688 63.7556 52.852 63.4356 52.964C63.1236 53.068 62.7676 53.12 62.3676 53.12ZM63.0636 51.932C63.5676 51.932 64.0316 51.76 64.4556 51.416L64.9956 48.824C64.7396 48.528 64.3716 48.38 63.8916 48.38C63.4196 48.38 63.0236 48.528 62.7036 48.824C62.3836 49.112 62.1556 49.576 62.0196 50.216C61.8916 50.824 61.9076 51.264 62.0676 51.536C62.2276 51.8 62.5596 51.932 63.0636 51.932ZM67.1175 53L68.3175 47.312H69.8175L69.7575 47.864C70.0775 47.656 70.4095 47.492 70.7535 47.372C71.1055 47.252 71.4695 47.192 71.8455 47.192C72.2455 47.192 72.5415 47.252 72.7335 47.372C72.9335 47.492 73.0695 47.664 73.1415 47.888C73.4455 47.68 73.7815 47.512 74.1495 47.384C74.5175 47.256 74.9335 47.192 75.3975 47.192C76.0055 47.192 76.4415 47.364 76.7055 47.708C76.9695 48.044 77.0295 48.56 76.8855 49.256L76.0935 53H74.4975L75.2535 49.436C75.3335 49.06 75.3175 48.792 75.2055 48.632C75.1015 48.464 74.8535 48.38 74.4615 48.38C73.9815 48.38 73.5455 48.552 73.1535 48.896C73.1615 49.032 73.1455 49.196 73.1055 49.388L72.3495 53H70.8375L71.5935 49.436C71.6655 49.084 71.6575 48.82 71.5695 48.644C71.4895 48.468 71.2775 48.38 70.9335 48.38C70.6935 48.38 70.4535 48.444 70.2135 48.572C69.9815 48.692 69.7615 48.832 69.5535 48.992L68.7135 53H67.1175ZM79.254 46.268L79.518 44.996H81.282L81.018 46.268H79.254ZM77.958 53L78.906 48.512H78.054L78.45 47.312H80.778L79.578 53H77.958ZM80.969 53L82.169 47.312H83.669L83.621 47.852C83.893 47.676 84.217 47.524 84.593 47.396C84.977 47.26 85.365 47.192 85.757 47.192C87.197 47.192 87.765 47.912 87.461 49.352L86.693 53H85.073L85.829 49.436C85.909 49.052 85.893 48.78 85.781 48.62C85.669 48.46 85.413 48.38 85.013 48.38C84.717 48.38 84.433 48.436 84.161 48.548C83.889 48.66 83.649 48.8 83.441 48.968L82.589 53H80.969ZM90.6604 53L92.2924 45.272H95.8204C96.4124 45.272 96.8844 45.396 97.2364 45.644C97.5964 45.884 97.8404 46.208 97.9684 46.616C98.0964 47.016 98.1084 47.456 98.0044 47.936C97.8364 48.72 97.4924 49.356 96.9724 49.844C96.4604 50.332 95.7404 50.576 94.8124 50.576H92.7844L92.2804 53H90.6604ZM93.0604 49.292H94.6804C95.1924 49.292 95.5804 49.172 95.8444 48.932C96.1164 48.684 96.2924 48.352 96.3724 47.936C96.4684 47.488 96.4484 47.148 96.3124 46.916C96.1844 46.676 95.8564 46.556 95.3284 46.556H93.6484L93.0604 49.292ZM100.172 53.12C99.6843 53.12 99.2603 53.032 98.9003 52.856C98.5483 52.68 98.2963 52.396 98.1443 52.004C98.0003 51.604 97.9963 51.08 98.1323 50.432C98.2763 49.752 98.5163 49.172 98.8523 48.692C99.1883 48.212 99.5923 47.844 100.064 47.588C100.536 47.324 101.04 47.192 101.576 47.192C101.896 47.192 102.172 47.228 102.404 47.3C102.636 47.372 102.852 47.5 103.052 47.684L103.124 47.312H104.744L103.544 53H102.152L102.164 52.472C101.868 52.688 101.56 52.852 101.24 52.964C100.928 53.068 100.572 53.12 100.172 53.12ZM100.868 51.932C101.372 51.932 101.836 51.76 102.26 51.416L102.788 48.884C102.54 48.548 102.192 48.38 101.744 48.38C100.728 48.38 100.072 49.064 99.7763 50.432C99.6483 51.016 99.6683 51.412 99.8363 51.62C100.012 51.828 100.356 51.932 100.868 51.932ZM104.922 53L106.122 47.312H107.622L107.574 47.852C107.846 47.676 108.17 47.524 108.546 47.396C108.93 47.26 109.318 47.192 109.71 47.192C111.15 47.192 111.718 47.912 111.414 49.352L110.646 53H109.026L109.782 49.436C109.862 49.052 109.846 48.78 109.734 48.62C109.622 48.46 109.366 48.38 108.966 48.38C108.67 48.38 108.386 48.436 108.114 48.548C107.842 48.66 107.602 48.8 107.394 48.968L106.542 53H104.922ZM114.717 53.12C114.101 53.12 113.573 53.012 113.133 52.796C112.701 52.58 112.393 52.252 112.209 51.812C112.033 51.364 112.013 50.808 112.149 50.144C112.277 49.536 112.477 49.012 112.749 48.572C113.021 48.132 113.393 47.792 113.865 47.552C114.345 47.312 114.945 47.192 115.665 47.192C116.545 47.192 117.169 47.424 117.537 47.888C117.913 48.344 118.021 48.944 117.861 49.688L117.645 50.72H113.529C113.521 51.176 113.641 51.488 113.889 51.656C114.145 51.824 114.621 51.908 115.317 51.908C115.621 51.908 115.937 51.88 116.265 51.824C116.593 51.768 116.877 51.696 117.117 51.608L116.877 52.76C116.589 52.88 116.261 52.968 115.893 53.024C115.525 53.088 115.133 53.12 114.717 53.12ZM113.745 49.724H116.445L116.505 49.412C116.577 49.084 116.537 48.828 116.385 48.644C116.233 48.452 115.929 48.356 115.473 48.356C114.937 48.356 114.541 48.464 114.285 48.68C114.029 48.896 113.849 49.244 113.745 49.724ZM119.841 53.12C118.785 53.12 118.373 52.584 118.605 51.512L120.009 44.912H121.629L120.249 51.38C120.209 51.58 120.213 51.72 120.261 51.8C120.317 51.872 120.433 51.908 120.609 51.908C120.817 51.908 121.009 51.88 121.185 51.824L120.957 52.94C120.621 53.06 120.249 53.12 119.841 53.12Z" fill="#959595"/>
<path d="M36.9306 34.0555H44.9999C44.314 22.7417 35.2495 13.6987 23.939 13V20.5784C30.892 21.398 36.3657 27.0281 36.9306 34.0555Z" fill="#181D34"/>
<path d="M23.939 49.9379V57.9194C35.2091 57.2207 44.2333 48.2449 44.9999 36.9982H36.8768C36.0833 43.7704 30.7172 49.1451 23.939 49.9379Z" fill="#181D34"/>
<path d="M20.9803 20.5246V13C9.72361 13.7659 0.739748 22.7955 0.0404053 34.0555H7.4373C8.02905 26.8534 13.7717 21.1159 20.9803 20.5246Z" fill="#181D34"/>
<path d="M7.39689 52.7461V35.6679H6.93963H5.91751H0V57.9731H0.0268978C0.0268978 57.9865 0.0268978 57.9999 0.0268978 57.9999C7.00687 57.9999 14.0003 57.9999 20.9803 57.9999C20.9803 55.3529 20.9534 45.8262 20.9534 43.1925C17.1204 52.3833 10.4901 53.8076 7.39689 52.7461Z" fill="#181D34"/>
<path d="M23.0648 39.8334C25.8502 39.8334 28.1082 37.5774 28.1082 34.7946C28.1082 32.0117 25.8502 29.7558 23.0648 29.7558C20.2795 29.7558 18.0215 32.0117 18.0215 34.7946C18.0215 37.5774 20.2795 39.8334 23.0648 39.8334Z" fill="#18D6BF"/>
</svg>
