<svg width="213" height="58" viewBox="0 0 213 58" fill="none" xmlns="http://www.w3.org/2000/svg">
<path d="M66.724 40L70.828 20.56H63.7L64.492 16.816H83.572L82.78 20.56H75.688L71.584 40H66.724ZM78.2977 40L81.8977 22.936H86.3977L86.2537 24.7C87.1417 24.22 88.1857 23.788 89.3857 23.404C90.6097 22.996 91.7857 22.72 92.9137 22.576L92.1577 26.248C91.4857 26.344 90.7417 26.488 89.9257 26.68C89.1337 26.872 88.3537 27.088 87.5857 27.328C86.8417 27.568 86.2057 27.82 85.6777 28.084L83.1577 40H78.2977ZM98.0794 40.36C96.6154 40.36 95.3434 40.096 94.2634 39.568C93.2074 39.04 92.4514 38.188 91.9954 37.012C91.5634 35.812 91.5514 34.24 91.9594 32.296C92.3914 30.256 93.1114 28.516 94.1194 27.076C95.1274 25.636 96.3394 24.532 97.7554 23.764C99.1714 22.972 100.683 22.576 102.291 22.576C103.251 22.576 104.079 22.684 104.775 22.9C105.471 23.116 106.119 23.5 106.719 24.052L106.935 22.936H111.795L108.195 40H104.019L104.055 38.416C103.167 39.064 102.243 39.556 101.283 39.892C100.347 40.204 99.2794 40.36 98.0794 40.36ZM100.167 36.796C101.679 36.796 103.071 36.28 104.343 35.248L105.927 27.652C105.183 26.644 104.139 26.14 102.795 26.14C99.7474 26.14 97.7794 28.192 96.8914 32.296C96.5074 34.048 96.5674 35.236 97.0714 35.86C97.5994 36.484 98.6314 36.796 100.167 36.796ZM120.897 40.36C119.073 40.36 117.513 40.024 116.217 39.352C114.945 38.68 114.045 37.684 113.517 36.364C113.013 35.044 112.965 33.412 113.373 31.468C113.997 28.468 115.281 26.236 117.225 24.772C119.169 23.308 121.701 22.576 124.821 22.576C126.021 22.576 127.029 22.66 127.845 22.828C128.685 22.996 129.477 23.272 130.221 23.656L129.465 27.148C128.937 26.86 128.289 26.632 127.521 26.464C126.777 26.296 125.949 26.212 125.037 26.212C123.213 26.212 121.737 26.596 120.609 27.364C119.481 28.108 118.713 29.476 118.305 31.468C117.921 33.292 118.017 34.624 118.593 35.464C119.193 36.304 120.585 36.724 122.769 36.724C123.609 36.724 124.449 36.64 125.289 36.472C126.129 36.304 126.933 36.052 127.701 35.716L126.945 39.316C125.169 40.012 123.153 40.36 120.897 40.36ZM129.871 40L135.019 15.736H139.879L137.035 29.092L144.703 22.936H150.247L141.895 29.92L147.043 40H141.895L138.295 32.476L135.919 34.384L134.731 40H129.871ZM177.673 40.36C176.209 40.36 174.937 40.096 173.857 39.568C172.801 39.04 172.045 38.188 171.589 37.012C171.157 35.812 171.145 34.24 171.553 32.296C171.985 30.256 172.705 28.516 173.713 27.076C174.721 25.636 175.933 24.532 177.349 23.764C178.765 22.972 180.277 22.576 181.885 22.576C182.845 22.576 183.673 22.684 184.369 22.9C185.065 23.116 185.713 23.5 186.313 24.052L186.529 22.936H191.389L187.789 40H183.613L183.649 38.416C182.761 39.064 181.837 39.556 180.877 39.892C179.941 40.204 178.873 40.36 177.673 40.36ZM179.761 36.796C181.273 36.796 182.665 36.28 183.937 35.248L185.521 27.652C184.777 26.644 183.733 26.14 182.389 26.14C179.341 26.14 177.373 28.192 176.485 32.296C176.101 34.048 176.161 35.236 176.665 35.86C177.193 36.484 178.225 36.796 179.761 36.796ZM191.887 40L197.035 15.736H201.895L199.051 29.092L206.719 22.936H212.263L203.911 29.92L209.059 40H203.911L200.311 32.476L197.935 34.384L196.747 40H191.887Z" fill="white"/>
<path d="M149.138 40L154.034 16.816H164.618C166.394 16.816 167.81 17.188 168.866 17.932C169.946 18.652 170.678 19.624 171.062 20.848C171.446 22.048 171.482 23.368 171.17 24.808C170.666 27.16 169.634 29.068 168.074 30.532C166.538 31.996 164.378 32.728 161.594 32.728H155.51L153.998 40H149.138ZM156.338 28.876H161.198C162.734 28.876 163.898 28.516 164.69 27.796C165.506 27.052 166.034 26.056 166.274 24.808C166.562 23.464 166.502 22.444 166.094 21.748C165.71 21.028 164.726 20.668 163.142 20.668H158.102L156.338 28.876Z" fill="#18D6BF"/>
<path d="M60.76 53L65.344 45.272H67.12L68.428 53H66.808L66.46 51.14H63.616L62.512 53H60.76ZM64.132 49.892H66.496L65.968 46.784L64.132 49.892ZM71.3676 53.12C70.8956 53.12 70.4836 53.02 70.1316 52.82C69.7796 52.612 69.5276 52.292 69.3756 51.86C69.2316 51.428 69.2316 50.872 69.3756 50.192C69.5916 49.176 69.9916 48.424 70.5756 47.936C71.1596 47.44 71.8756 47.192 72.7236 47.192C73.3636 47.192 73.8756 47.336 74.2596 47.624L74.8356 44.912H76.4556L74.7396 53H73.3476L73.3596 52.472C73.0636 52.688 72.7556 52.852 72.4356 52.964C72.1236 53.068 71.7676 53.12 71.3676 53.12ZM72.0636 51.932C72.5676 51.932 73.0316 51.76 73.4556 51.416L73.9956 48.824C73.7396 48.528 73.3716 48.38 72.8916 48.38C72.4196 48.38 72.0236 48.528 71.7036 48.824C71.3836 49.112 71.1556 49.576 71.0196 50.216C70.8916 50.824 70.9076 51.264 71.0676 51.536C71.2276 51.8 71.5596 51.932 72.0636 51.932ZM76.1175 53L77.3175 47.312H78.8175L78.7575 47.864C79.0775 47.656 79.4095 47.492 79.7535 47.372C80.1055 47.252 80.4695 47.192 80.8455 47.192C81.2455 47.192 81.5415 47.252 81.7335 47.372C81.9335 47.492 82.0695 47.664 82.1415 47.888C82.4455 47.68 82.7815 47.512 83.1495 47.384C83.5175 47.256 83.9335 47.192 84.3975 47.192C85.0055 47.192 85.4415 47.364 85.7055 47.708C85.9695 48.044 86.0295 48.56 85.8855 49.256L85.0935 53H83.4975L84.2535 49.436C84.3335 49.06 84.3175 48.792 84.2055 48.632C84.1015 48.464 83.8535 48.38 83.4615 48.38C82.9815 48.38 82.5455 48.552 82.1535 48.896C82.1615 49.032 82.1455 49.196 82.1055 49.388L81.3495 53H79.8375L80.5935 49.436C80.6655 49.084 80.6575 48.82 80.5695 48.644C80.4895 48.468 80.2775 48.38 79.9335 48.38C79.6935 48.38 79.4535 48.444 79.2135 48.572C78.9815 48.692 78.7615 48.832 78.5535 48.992L77.7135 53H76.1175ZM88.254 46.268L88.518 44.996H90.282L90.018 46.268H88.254ZM86.958 53L87.906 48.512H87.054L87.45 47.312H89.778L88.578 53H86.958ZM89.969 53L91.169 47.312H92.669L92.621 47.852C92.893 47.676 93.217 47.524 93.593 47.396C93.977 47.26 94.365 47.192 94.757 47.192C96.197 47.192 96.765 47.912 96.461 49.352L95.693 53H94.073L94.829 49.436C94.909 49.052 94.893 48.78 94.781 48.62C94.669 48.46 94.413 48.38 94.013 48.38C93.717 48.38 93.433 48.436 93.161 48.548C92.889 48.66 92.649 48.8 92.441 48.968L91.589 53H89.969ZM99.6604 53L101.292 45.272H104.82C105.412 45.272 105.884 45.396 106.236 45.644C106.596 45.884 106.84 46.208 106.968 46.616C107.096 47.016 107.108 47.456 107.004 47.936C106.836 48.72 106.492 49.356 105.972 49.844C105.46 50.332 104.74 50.576 103.812 50.576H101.784L101.28 53H99.6604ZM102.06 49.292H103.68C104.192 49.292 104.58 49.172 104.844 48.932C105.116 48.684 105.292 48.352 105.372 47.936C105.468 47.488 105.448 47.148 105.312 46.916C105.184 46.676 104.856 46.556 104.328 46.556H102.648L102.06 49.292ZM109.172 53.12C108.684 53.12 108.26 53.032 107.9 52.856C107.548 52.68 107.296 52.396 107.144 52.004C107 51.604 106.996 51.08 107.132 50.432C107.276 49.752 107.516 49.172 107.852 48.692C108.188 48.212 108.592 47.844 109.064 47.588C109.536 47.324 110.04 47.192 110.576 47.192C110.896 47.192 111.172 47.228 111.404 47.3C111.636 47.372 111.852 47.5 112.052 47.684L112.124 47.312H113.744L112.544 53H111.152L111.164 52.472C110.868 52.688 110.56 52.852 110.24 52.964C109.928 53.068 109.572 53.12 109.172 53.12ZM109.868 51.932C110.372 51.932 110.836 51.76 111.26 51.416L111.788 48.884C111.54 48.548 111.192 48.38 110.744 48.38C109.728 48.38 109.072 49.064 108.776 50.432C108.648 51.016 108.668 51.412 108.836 51.62C109.012 51.828 109.356 51.932 109.868 51.932ZM113.922 53L115.122 47.312H116.622L116.574 47.852C116.846 47.676 117.17 47.524 117.546 47.396C117.93 47.26 118.318 47.192 118.71 47.192C120.15 47.192 120.718 47.912 120.414 49.352L119.646 53H118.026L118.782 49.436C118.862 49.052 118.846 48.78 118.734 48.62C118.622 48.46 118.366 48.38 117.966 48.38C117.67 48.38 117.386 48.436 117.114 48.548C116.842 48.66 116.602 48.8 116.394 48.968L115.542 53H113.922ZM123.717 53.12C123.101 53.12 122.573 53.012 122.133 52.796C121.701 52.58 121.393 52.252 121.209 51.812C121.033 51.364 121.013 50.808 121.149 50.144C121.277 49.536 121.477 49.012 121.749 48.572C122.021 48.132 122.393 47.792 122.865 47.552C123.345 47.312 123.945 47.192 124.665 47.192C125.545 47.192 126.169 47.424 126.537 47.888C126.913 48.344 127.021 48.944 126.861 49.688L126.645 50.72H122.529C122.521 51.176 122.641 51.488 122.889 51.656C123.145 51.824 123.621 51.908 124.317 51.908C124.621 51.908 124.937 51.88 125.265 51.824C125.593 51.768 125.877 51.696 126.117 51.608L125.877 52.76C125.589 52.88 125.261 52.968 124.893 53.024C124.525 53.088 124.133 53.12 123.717 53.12ZM122.745 49.724H125.445L125.505 49.412C125.577 49.084 125.537 48.828 125.385 48.644C125.233 48.452 124.929 48.356 124.473 48.356C123.937 48.356 123.541 48.464 123.285 48.68C123.029 48.896 122.849 49.244 122.745 49.724ZM128.841 53.12C127.785 53.12 127.373 52.584 127.605 51.512L129.009 44.912H130.629L129.249 51.38C129.209 51.58 129.213 51.72 129.261 51.8C129.317 51.872 129.433 51.908 129.609 51.908C129.817 51.908 130.009 51.88 130.185 51.824L129.957 52.94C129.621 53.06 129.249 53.12 128.841 53.12Z" fill="#959595"/>
<g clip-path="url(#clip0_152_298)">
<path d="M36.9196 30.0555H44.9866C44.3009 18.7417 35.239 9.69872 23.9319 9V16.5784C30.8829 17.398 36.3549 23.0281 36.9196 30.0555Z" fill="#F9F9F9"/>
<path d="M23.9319 45.9379V53.9193C35.1987 53.2206 44.2202 44.2448 44.9866 32.9982H36.8659C36.0726 39.7703 30.7081 45.1451 23.9319 45.9379Z" fill="#F9F9F9"/>
<path d="M20.9739 16.5246V9C9.72059 9.7659 0.739417 18.7955 0.0402832 30.0555H7.43496C8.02654 22.8534 13.7675 17.1159 20.9739 16.5246Z" fill="#F9F9F9"/>
<path d="M7.39468 48.7462V31.668H6.93756H5.91575H0V53.9731H0.0268898C0.0268898 53.9866 0.0268898 54 0.0268898 54C7.00478 54 13.9961 54 20.974 54C20.974 51.353 20.9471 41.8262 20.9471 39.1926C17.1153 48.3834 10.487 49.8077 7.39468 48.7462Z" fill="#F9F9F9"/>
<path d="M23.0579 35.8334C25.8425 35.8334 28.0998 33.5774 28.0998 30.7946C28.0998 28.0117 25.8425 25.7557 23.0579 25.7557C20.2734 25.7557 18.0161 28.0117 18.0161 30.7946C18.0161 33.5774 20.2734 35.8334 23.0579 35.8334Z" fill="#18D6BF"/>
</g>
<defs>
<clipPath id="clip0_152_298">
<rect width="45" height="45" fill="white" transform="translate(0 9)"/>
</clipPath>
</defs>
</svg>
