<svg width="120" height="120" viewBox="0 0 120 120" fill="none" xmlns="http://www.w3.org/2000/svg">
<g clip-path="url(#clip0_48_333)">
<path d="M98.4524 56.1481H119.964C118.136 25.9779 93.9707 1.86324 63.8184 0V20.209C82.3544 22.3947 96.9465 37.4082 98.4524 56.1481Z" fill="#F9F9F9"/>
<path d="M63.8184 98.5011V119.785C93.8632 117.922 117.921 93.9863 119.964 63.9952H98.3089C96.1936 82.0544 81.8883 96.387 63.8184 98.5011Z" fill="#F9F9F9"/>
<path d="M55.9307 20.0657V0C25.9217 2.0424 1.9719 26.1212 0.107544 56.1481H19.8267C21.4042 36.9424 36.7134 21.6423 55.9307 20.0657Z" fill="#F9F9F9"/>
<path d="M19.7191 105.99V60.4479H18.5001H15.7753H0V119.928H0.071706C0.071706 119.964 0.071706 120 0.071706 120C18.6794 120 37.323 120 55.9307 120C55.9307 112.941 55.859 87.5366 55.859 80.5136C45.6409 105.022 27.9653 108.821 19.7191 105.99Z" fill="#F9F9F9"/>
<path d="M61.4879 71.5557C68.9133 71.5557 74.9328 65.5398 74.9328 58.1189C74.9328 50.6979 68.9133 44.682 61.4879 44.682C54.0625 44.682 48.043 50.6979 48.043 58.1189C48.043 65.5398 54.0625 71.5557 61.4879 71.5557Z" fill="#18D6BF"/>
</g>
<defs>
<clipPath id="clip0_48_333">
<rect width="120" height="120" fill="white"/>
</clipPath>
</defs>
</svg>
